HIERARCHY
ROOT Hips
{
	OFFSET 0.000000 100.481300 0.000000
	CHANNELS 6 Xposition Yposition Zposition Xrotation Yrotation Zrotation
	JOINT Spine
	{
		OFFSET -0.279200 12.230698 -2.892100
		CHANNELS 3 Xrotation Yrotation Zrotation
		JOINT Spine1
		{
			OFFSET -0.325700 14.269203 -3.374200
			CHANNELS 3 Xrotation Yrotation Zrotation
			JOINT Spine2
			{
				OFFSET -0.372300 16.307602 -0.352600
				CHANNELS 3 Xrotation Yrotation Zrotation
				JOINT Neck
				{
					OFFSET -0.418800 17.814194 8.416900
					CHANNELS 3 Xrotation Yrotation Zrotation
					JOINT Head
					{
						OFFSET 0.000000 7.031097 3.806800
						CHANNELS 3 Xrotation Yrotation Zrotation
						JOINT HeadTop_End
						{
							OFFSET 0.000000 24.646606 12.978600
							CHANNELS 3 Xrotation Yrotation Zrotation
							End Site
							{
								OFFSET 0.000000 27.854965 0.000000
							}
						}
					}
				}
				JOINT LeftShoulder
				{
					OFFSET 16.952999 14.495407 -7.737500
					CHANNELS 3 Xrotation Yrotation Zrotation
					JOINT LeftArm
					{
						OFFSET 9.308998 -2.777710 0.208600
						CHANNELS 3 Xrotation Yrotation Zrotation
						JOINT LeftForeArm
						{
							OFFSET 29.972298 0.000000 0.000000
							CHANNELS 3 Xrotation Yrotation Zrotation
							JOINT LeftHand
							{
								OFFSET 26.026505 0.000000 0.000000
								CHANNELS 3 Xrotation Yrotation Zrotation
								JOINT LeftHandThumb1
								{
									OFFSET 12.240501 -7.147949 9.207150
									CHANNELS 3 Xrotation Yrotation Zrotation
									JOINT LeftHandThumb2
									{
										OFFSET 4.138618 -2.389435 2.389433
										CHANNELS 3 Xrotation Yrotation Zrotation
										JOINT LeftHandThumb3
										{
											OFFSET 2.726913 -1.574387 1.574386
											CHANNELS 3 Xrotation Yrotation Zrotation
											JOINT LeftHandThumb4
											{
												OFFSET 3.941010 -2.275345 2.275342
												CHANNELS 3 Xrotation Yrotation Zrotation
												End Site
												{
													OFFSET -0.005798 5.087799 0.009903
												}
											}
										}
									}
								}
								JOINT LeftHandIndex1
								{
									OFFSET 24.424698 -1.985611 5.953459
									CHANNELS 3 Xrotation Yrotation Zrotation
									JOINT LeftHandIndex2
									{
										OFFSET 6.426697 0.000000 0.000000
										CHANNELS 3 Xrotation Yrotation Zrotation
										JOINT LeftHandIndex3
										{
											OFFSET 5.337898 0.000000 0.000000
											CHANNELS 3 Xrotation Yrotation Zrotation
											JOINT LeftHandIndex4
											{
												OFFSET 4.409401 0.000000 0.000000
												CHANNELS 3 Xrotation Yrotation Zrotation
												End Site
												{
													OFFSET 0.000000 4.409363 0.014373
												}
											}
										}
									}
								}
								JOINT LeftHandMiddle1
								{
									OFFSET 23.810104 0.000000 0.000000
									CHANNELS 3 Xrotation Yrotation Zrotation
									JOINT LeftHandMiddle2
									{
										OFFSET 7.176498 0.000000 0.000000
										CHANNELS 3 Xrotation Yrotation Zrotation
										JOINT LeftHandMiddle3
										{
											OFFSET 6.774902 0.000000 0.000000
											CHANNELS 3 Xrotation Yrotation Zrotation
											JOINT LeftHandMiddle4
											{
												OFFSET 5.403328 0.000000 0.000000
												CHANNELS 3 Xrotation Yrotation Zrotation
												End Site
												{
													OFFSET -0.027702 5.403244 0.017414
												}
											}
										}
									}
								}
								JOINT LeftHandRing1
								{
									OFFSET 22.908401 -0.839279 -6.020567
									CHANNELS 3 Xrotation Yrotation Zrotation
									JOINT LeftHandRing2
									{
										OFFSET 6.337502 0.000000 0.000000
										CHANNELS 3 Xrotation Yrotation Zrotation
										JOINT LeftHandRing3
										{
											OFFSET 5.779297 0.000000 0.000000
											CHANNELS 3 Xrotation Yrotation Zrotation
											JOINT LeftHandRing4
											{
												OFFSET 4.965698 0.000000 0.000000
												CHANNELS 3 Xrotation Yrotation Zrotation
												End Site
												{
													OFFSET 0.000000 4.965668 0.016186
												}
											}
										}
									}
								}
								JOINT LeftHandPinky1
								{
									OFFSET 20.037003 -1.530319 -10.950146
									CHANNELS 3 Xrotation Yrotation Zrotation
									JOINT LeftHandPinky2
									{
										OFFSET 5.254700 0.000000 0.000000
										CHANNELS 3 Xrotation Yrotation Zrotation
										JOINT LeftHandPinky3
										{
											OFFSET 4.810204 0.000000 0.000000
											CHANNELS 3 Xrotation Yrotation Zrotation
											JOINT LeftHandPinky4
											{
												OFFSET 3.647202 0.000000 0.000000
												CHANNELS 3 Xrotation Yrotation Zrotation
												End Site
												{
													OFFSET 0.000000 3.647186 0.011889
												}
											}
										}
									}
								}
							}
						}
					}
				}
				JOINT RightShoulder
				{
					OFFSET -15.141001 14.495407 -7.737500
					CHANNELS 3 Xrotation Yrotation Zrotation
					JOINT RightArm
					{
						OFFSET -9.308998 -2.777710 0.208500
						CHANNELS 3 Xrotation Yrotation Zrotation
						JOINT RightForeArm
						{
							OFFSET -29.972300 0.000000 0.000000
							CHANNELS 3 Xrotation Yrotation Zrotation
							JOINT RightHand
							{
								OFFSET -26.026505 0.000000 0.000000
								CHANNELS 3 Xrotation Yrotation Zrotation
								JOINT RightHandThumb1
								{
									OFFSET -12.240601 -7.148026 9.207092
									CHANNELS 3 Xrotation Yrotation Zrotation
									JOINT RightHandThumb2
									{
										OFFSET -4.138618 -2.389435 2.389433
										CHANNELS 3 Xrotation Yrotation Zrotation
										JOINT RightHandThumb3
										{
											OFFSET -2.726974 -1.574417 1.574421
											CHANNELS 3 Xrotation Yrotation Zrotation
											JOINT RightHandThumb4
											{
												OFFSET -3.941010 -2.275345 2.275343
												CHANNELS 3 Xrotation Yrotation Zrotation
												End Site
												{
													OFFSET 0.005814 5.087799 0.009927
												}
											}
										}
									}
								}
								JOINT RightHandIndex1
								{
									OFFSET -24.424698 -1.985657 5.953444
									CHANNELS 3 Xrotation Yrotation Zrotation
									JOINT RightHandIndex2
									{
										OFFSET -6.426697 0.000000 0.000000
										CHANNELS 3 Xrotation Yrotation Zrotation
										JOINT RightHandIndex3
										{
											OFFSET -5.337898 0.000000 0.000000
											CHANNELS 3 Xrotation Yrotation Zrotation
											JOINT RightHandIndex4
											{
												OFFSET -4.409401 0.000000 0.000000
												CHANNELS 3 Xrotation Yrotation Zrotation
												End Site
												{
													OFFSET 0.000000 4.409363 0.014408
												}
											}
										}
									}
								}
								JOINT RightHandMiddle1
								{
									OFFSET -23.810097 0.000000 0.000000
									CHANNELS 3 Xrotation Yrotation Zrotation
									JOINT RightHandMiddle2
									{
										OFFSET -7.176498 0.000000 0.000000
										CHANNELS 3 Xrotation Yrotation Zrotation
										JOINT RightHandMiddle3
										{
											OFFSET -6.774902 0.000000 0.000000
											CHANNELS 3 Xrotation Yrotation Zrotation
											JOINT RightHandMiddle4
											{
												OFFSET -5.403328 0.000000 0.000000
												CHANNELS 3 Xrotation Yrotation Zrotation
												End Site
												{
													OFFSET 0.027702 5.403244 0.017457
												}
											}
										}
									}
								}
								JOINT RightHandRing1
								{
									OFFSET -22.908302 -0.839325 -6.020576
									CHANNELS 3 Xrotation Yrotation Zrotation
									JOINT RightHandRing2
									{
										OFFSET -6.337502 0.000000 0.000000
										CHANNELS 3 Xrotation Yrotation Zrotation
										JOINT RightHandRing3
										{
											OFFSET -5.779297 0.000000 0.000000
											CHANNELS 3 Xrotation Yrotation Zrotation
											JOINT RightHandRing4
											{
												OFFSET -4.965698 0.000000 0.000000
												CHANNELS 3 Xrotation Yrotation Zrotation
												End Site
												{
													OFFSET 0.000000 4.965668 0.016226
												}
											}
										}
									}
								}
								JOINT RightHandPinky1
								{
									OFFSET -20.037003 -1.530334 -10.950259
									CHANNELS 3 Xrotation Yrotation Zrotation
									JOINT RightHandPinky2
									{
										OFFSET -5.254700 0.000000 0.000000
										CHANNELS 3 Xrotation Yrotation Zrotation
										JOINT RightHandPinky3
										{
											OFFSET -4.810204 0.000000 0.000000
											CHANNELS 3 Xrotation Yrotation Zrotation
											JOINT RightHandPinky4
											{
												OFFSET -3.647202 0.000000 0.000000
												CHANNELS 3 Xrotation Yrotation Zrotation
												End Site
												{
													OFFSET 0.000000 3.647186 0.011917
												}
											}
										}
									}
								}
							}
						}
					}
				}
			}
		}
	}
	JOINT LeftUpLeg
	{
		OFFSET 15.427100 -6.655098 0.678600
		CHANNELS 3 Xrotation Yrotation Zrotation
		JOINT LeftLeg
		{
			OFFSET 4.081073 -39.591068 13.024000
			CHANNELS 3 Xrotation Yrotation Zrotation
			JOINT LeftFoot
			{
				OFFSET -4.081074 -37.707932 -15.979700
				CHANNELS 3 Xrotation Yrotation Zrotation
				JOINT LeftToeBase
				{
					OFFSET 5.346399 -15.068900 20.645000
					CHANNELS 3 Xrotation Yrotation Zrotation
					JOINT LeftToe_End
					{
						OFFSET 2.754700 0.931300 11.300900
						CHANNELS 3 Xrotation Yrotation Zrotation
						End Site
						{
							OFFSET 0.000000 11.669021 0.000000
						}
					}
				}
			}
		}
	}
	JOINT RightUpLeg
	{
		OFFSET -15.569500 -6.655098 0.678600
		CHANNELS 3 Xrotation Yrotation Zrotation
		JOINT RightLeg
		{
			OFFSET -4.081825 -39.591045 13.023800
			CHANNELS 3 Xrotation Yrotation Zrotation
			JOINT RightFoot
			{
				OFFSET 4.081824 -37.707954 -15.979600
				CHANNELS 3 Xrotation Yrotation Zrotation
				JOINT RightToeBase
				{
					OFFSET -5.346400 -15.068900 20.645000
					CHANNELS 3 Xrotation Yrotation Zrotation
					JOINT RightToe_End
					{
						OFFSET -2.754700 0.931300 11.300900
						CHANNELS 3 Xrotation Yrotation Zrotation
						End Site
						{
							OFFSET 0.000000 11.669021 0.000000
						}
					}
				}
			}
		}
	}
}
MOTION
Frames: 4
Frame Time: 0.033333
0.029883 88.319504 -2.141714 -16.074922 -3.004819 -1.887210 19.772517 0.784560 2.211672 18.081365 -0.268973 0.328182 18.080776 -0.320082 0.300122 -7.352522 0.402825 -0.331672 -2.298629 1.017163 0.516757 -0.000001 0.000000 -0.000000 -2.832693 -0.765009 -3.990258 -33.688836 -35.313499 -71.184389 -0.000007 -23.363849 -0.000003 -15.621394 -6.433062 -0.043055 -6.141220 -11.690798 -6.761687 9.914108 42.595501 3.409870 -0.422807 8.108091 27.509109 -0.000001 0.000002 -0.000000 0.255306 3.378217 -45.814344 5.654101 5.847764 -88.067462 2.162138 4.544800 -50.866365 -0.000001 -0.000003 -0.000002 -0.461473 3.841596 -39.722690 6.450748 5.820372 -95.892844 2.182893 4.561565 -51.127733 -0.000004 -0.000002 0.000001 0.469722 4.966825 -39.799434 8.181029 5.368618 -113.503004 3.200490 5.218119 -63.022968 -0.000001 0.000004 -0.000001 -3.762439 9.063693 -45.253825 5.342542 5.829009 -85.005290 8.716824 5.103321 -119.369181 -0.000001 0.000002 -0.000000 -3.139486 21.522254 -2.108252 -28.328022 -4.448664 70.479055 0.000000 35.048320 0.000005 13.432566 12.815072 -1.772968 -7.341112 13.749645 7.412316 9.855826 -44.489086 -3.903247 -0.115777 -14.513069 -28.973878 -0.000002 -0.000002 -0.000001 -0.124375 -2.384790 45.108871 4.500595 -4.654541 88.071150 1.723228 -3.618358 50.920105 -0.000000 -0.000002 -0.000001 -0.761612 -2.932903 39.031044 5.133885 -4.632763 95.881663 1.739742 -3.631702 51.181367 0.000001 0.000000 0.000001 0.154766 -4.068808 39.122668 6.509719 -4.273601 113.462877 2.549565 -4.153913 63.067324 0.000001 0.000001 -0.000001 -4.198878 -8.025509 44.637783 4.252918 -4.639632 85.014811 6.935967 -4.062613 119.322285 0.000000 0.000001 0.000000 -1.487608 13.967331 14.929924 33.330176 6.384414 0.318875 -14.505297 3.891596 -11.238874 -0.000181 -0.000003 -0.000002 -0.000000 -0.000000 -0.000000 -1.020038 -13.147053 -14.193759 30.964017 -3.394164 -0.228115 -12.658066 -2.486798 11.733150 -0.004290 0.000003 -0.000002 0.000000 -0.000000 0.000000 
-0.011754 88.234795 -1.917336 -16.481639 -3.014472 -1.895702 19.834634 0.738245 2.216673 18.143773 -0.279999 0.322634 18.122076 -0.336534 0.296435 -7.196069 0.403810 -0.369775 -2.274960 0.943975 0.554256 -0.000001 0.000000 0.000000 -2.808316 -0.719431 -4.109246 -34.392222 -34.408335 -72.069882 0.000002 -22.679887 -0.000003 -14.271714 -6.005515 -0.316404 -6.141221 -11.690802 -6.761683 9.914107 42.595505 3.409862 -0.422801 8.108092 27.509115 -0.000000 -0.000002 -0.000002 0.255304 3.378219 -45.814341 5.654095 5.847759 -88.067469 2.162137 4.544801 -50.866362 -0.000001 0.000002 -0.000002 -0.461477 3.841591 -39.722690 6.450750 5.820370 -95.892844 2.182892 4.561567 -51.127736 -0.000002 0.000002 0.000002 0.469720 4.966826 -39.799437 8.181026 5.368614 -113.503004 3.200492 5.218119 -63.022975 0.000001 0.000001 0.000001 -3.762441 9.063691 -45.253828 5.342536 5.829008 -85.005290 8.716827 5.103317 -119.369167 0.000001 -0.000000 0.000003 -3.152900 21.540827 -2.048392 -28.426699 -4.484864 70.613439 -0.000007 34.996117 0.000010 13.608780 12.736888 -1.981284 -7.341114 13.749644 7.412315 9.855819 -44.489083 -3.903249 -0.115775 -14.513071 -28.973871 -0.000000 -0.000001 -0.000002 -0.124377 -2.384787 45.108868 4.500586 -4.654543 88.071150 1.723223 -3.618365 50.920105 -0.000000 -0.000002 -0.000001 -0.761612 -2.932903 39.031051 5.133884 -4.632767 95.881663 1.739743 -3.631701 51.181367 0.000000 0.000003 0.000002 0.154766 -4.068809 39.122661 6.509718 -4.273600 113.462877 2.549565 -4.153913 63.067317 0.000002 0.000001 0.000001 -4.198877 -8.025508 44.637783 4.252921 -4.639636 85.014811 6.935962 -4.062614 119.322285 0.000002 -0.000000 0.000003 -0.905713 14.006394 14.920707 33.421454 6.299755 0.369985 -14.746180 4.014418 -11.346171 -0.000432 -0.000003 0.000000 -0.000000 -0.000002 -0.000000 -0.470662 -13.229097 -14.234533 31.100570 -3.287686 -0.209065 -12.955446 -2.514992 11.745180 -0.004112 0.000005 0.000002 0.000000 0.000000 -0.000000 
-0.056851 88.179527 -1.706934 -16.943814 -2.962902 -1.891995 19.960215 0.619187 2.223817 18.181009 -0.303127 0.312452 18.047301 -0.369167 0.290770 -7.137266 0.422416 -0.423215 -2.315099 0.943422 0.584537 -0.000000 -0.000000 -0.000000 -2.827621 -0.534787 -4.292498 -34.879754 -34.558080 -72.460063 0.000002 -22.250784 -0.000003 -14.424637 -6.307789 -0.765440 -6.141220 -11.690799 -6.761686 9.914106 42.595498 3.409865 -0.422804 8.108093 27.509113 -0.000001 -0.000001 -0.000002 0.255306 3.378216 -45.814344 5.654095 5.847758 -88.067469 2.162138 4.544802 -50.866365 -0.000003 0.000001 0.000001 -0.461472 3.841595 -39.722690 6.450750 5.820371 -95.892844 2.182890 4.561569 -51.127733 0.000004 -0.000000 -0.000001 0.469722 4.966826 -39.799441 8.181031 5.368615 -113.503004 3.200492 5.218122 -63.022968 -0.000002 -0.000000 -0.000002 -3.762440 9.063693 -45.253825 5.342541 5.829007 -85.005290 8.716823 5.103320 -119.369167 -0.000005 0.000001 0.000001 -3.170681 21.502134 -2.048031 -28.635995 -4.524054 70.738903 -0.000001 34.732735 0.000009 13.319721 12.831035 -1.678082 -7.341113 13.749642 7.412318 9.855818 -44.489089 -3.903246 -0.115771 -14.513069 -28.973867 0.000001 0.000001 -0.000002 -0.124377 -2.384787 45.108864 4.500588 -4.654542 88.071150 1.723226 -3.618360 50.920098 0.000003 -0.000003 -0.000000 -0.761618 -2.932908 39.031051 5.133894 -4.632764 95.881663 1.739741 -3.631699 51.181363 -0.000000 0.000003 0.000003 0.154761 -4.068811 39.122664 6.509718 -4.273603 113.462877 2.549569 -4.153913 63.067317 0.000001 -0.000000 0.000001 -4.198881 -8.025504 44.637783 4.252918 -4.639634 85.014811 6.935964 -4.062612 119.322285 0.000002 -0.000000 0.000001 -0.270272 14.074735 14.919643 33.439670 6.208555 0.416310 -14.937646 4.036460 -11.433876 -0.001458 -0.000003 -0.000002 -0.000000 0.000000 -0.000000 0.189477 -13.293833 -14.251582 31.164084 -3.267024 -0.221256 -13.212817 -2.550330 11.806711 -0.004098 -0.000003 -0.000001 -0.000000 -0.000000 -0.000000 
-0.105956 88.145157 -1.522560 -17.458577 -2.826603 -1.847622 20.166075 0.417314 2.211785 18.015481 -0.338935 0.291310 17.722287 -0.419485 0.275917 -7.178479 0.443441 -0.458634 -2.571773 0.974961 0.632933 0.000001 -0.000000 -0.000000 -2.893771 -0.151312 -4.390200 -33.773817 -36.661105 -71.124433 -0.000009 -23.878275 -0.000018 -17.817033 -7.633925 -0.885079 -6.141221 -11.690799 -6.761687 9.914108 42.595501 3.409866 -0.422801 8.108090 27.509116 -0.000000 -0.000002 0.000003 0.255302 3.378221 -45.814341 5.654097 5.847762 -88.067462 2.162135 4.544797 -50.866365 0.000001 -0.000003 -0.000002 -0.461477 3.841595 -39.722693 6.450746 5.820373 -95.892844 2.182889 4.561567 -51.127729 -0.000001 -0.000000 -0.000002 0.469723 4.966826 -39.799441 8.181030 5.368615 -113.503011 3.200491 5.218117 -63.022968 0.000001 0.000004 -0.000002 -3.762440 9.063696 -45.253828 5.342540 5.829008 -85.005290 8.716827 5.103321 -119.369181 -0.000004 -0.000000 0.000001 -3.187326 21.326864 -2.175094 -28.750141 -4.033052 70.548116 0.000001 34.610672 -0.000001 12.117928 13.149851 -0.691188 -7.341114 13.749647 7.412315 9.855826 -44.489086 -3.903241 -0.115773 -14.513073 -28.973874 0.000002 -0.000002 -0.000003 -0.124378 -2.384786 45.108868 4.500590 -4.654543 88.071150 1.723227 -3.618368 50.920105 0.000001 0.000000 0.000000 -0.761615 -2.932905 39.031048 5.133890 -4.632763 95.881663 1.739742 -3.631700 51.181370 -0.000003 0.000001 0.000002 0.154761 -4.068806 39.122664 6.509722 -4.273599 113.462877 2.549565 -4.153909 63.067317 0.000002 0.000001 -0.000002 -4.198879 -8.025507 44.637779 4.252917 -4.639636 85.014811 6.935969 -4.062613 119.322285 -0.000002 -0.000000 0.000001 0.395499 14.165638 14.908775 33.396528 6.098828 0.449823 -15.071156 3.950104 -11.485789 -0.001414 0.000007 0.000001 -0.000000 0.000000 0.000000 0.942690 -13.349531 -14.278029 31.186476 -3.342384 -0.255082 -13.447305 -2.597455 11.920602 -0.004192 0.000005 -0.000002 -0.000000 -0.000000 0.000000 
